<?xml version="1.0" encoding="UTF-8" standalone="no"?>
<!-- Created with Inkscape (http://www.inkscape.org/) -->

<svg
   width="123.867mm"
   height="38.532001mm"
   viewBox="0 0 123.8674 38.532131"
   version="1.1"
   id="svg5"
   xml:space="preserve"
   inkscape:version="1.3 (1:1.3+202307231459+0e150ed6c4)"
   sodipodi:docname="Logo.svg"
   xmlns:inkscape="http://www.inkscape.org/namespaces/inkscape"
   xmlns:sodipodi="http://sodipodi.sourceforge.net/DTD/sodipodi-0.dtd"
   xmlns="http://www.w3.org/2000/svg"
   xmlns:svg="http://www.w3.org/2000/svg"><sodipodi:namedview
     id="namedview7"
     pagecolor="#ffffff"
     bordercolor="#666666"
     borderopacity="1.0"
     inkscape:showpageshadow="2"
     inkscape:pageopacity="0.0"
     inkscape:pagecheckerboard="0"
     inkscape:deskcolor="#d1d1d1"
     inkscape:document-units="mm"
     showgrid="false"
     inkscape:zoom="0.79813113"
     inkscape:cx="204.22709"
     inkscape:cy="127.17209"
     inkscape:window-width="1728"
     inkscape:window-height="1011"
     inkscape:window-x="0"
     inkscape:window-y="0"
     inkscape:window-maximized="1"
     inkscape:current-layer="layer1" /><defs
     id="defs2" /><g
     inkscape:label="Layer 1"
     inkscape:groupmode="layer"
     id="layer1"
     transform="translate(-46.69956,-29.668275)"><text
       xml:space="preserve"
       style="font-style:normal;font-weight:normal;font-size:10.5833px;line-height:1.25;font-family:sans-serif;fill:#000000;fill-opacity:1;stroke:none;stroke-width:0.264583"
       x="73.60096"
       y="86.142784"
       id="text3618"><tspan
         sodipodi:role="line"
         id="tspan3616"
         style="stroke-width:0.264583"
         x="73.60096"
         y="86.142784" /></text><path
       id="rect3732"
       style="fill:#000000;fill-opacity:1;stroke-width:0.265;stroke-linejoin:round"
       d="m 84.60951,44.350969 c -3.118565,0 -5.628996,2.51044 -5.628996,5.629 v 10.15363 c 0,3.11858 2.510431,5.629 5.628996,5.629 h 14.673683 c 3.118557,0 5.628997,-2.51042 5.628997,-5.629 v -10.15363 c 0,-3.11856 -2.51044,-5.629 -5.628997,-5.629 z m 3.238013,5.25604 h 7.843827 c 1.667128,0 3.009028,1.3419 3.009028,3.00901 v 5.42835 c 0,1.66714 -1.3419,3.00903 -3.009028,3.00903 h -7.843827 c -1.667132,0 -3.00979,-1.34189 -3.00979,-3.00903 v -5.42835 c 0,-1.66711 1.342658,-3.00901 3.00979,-3.00901 z"
       inkscape:export-filename="tormach-logo.png"
       inkscape:export-xdpi="169.52235"
       inkscape:export-ydpi="169.52235" /><path
       id="rect3732-10"
       style="fill:#000000;fill-opacity:1;stroke-width:0.265;stroke-linejoin:round"
       d="m 61.384619,32.406489 c -1.36039,0 -2.455499,0.97023 -2.455499,2.1755 v 3.92421 c 0,1.20528 1.095109,2.17552 2.455499,2.17552 h 6.401003 c 1.360393,0 2.455501,-0.97024 2.455501,-2.17552 v -3.92421 c 0,-1.20527 -1.095108,-2.1755 -2.455501,-2.1755 z m 1.412499,2.03138 h 3.421661 c 0.727238,0 1.312607,0.51861 1.312607,1.16291 v 2.09798 c 0,0.64432 -0.585369,1.16293 -1.312607,1.16293 h -3.421661 c -0.727243,0 -1.312942,-0.51861 -1.312942,-1.16293 v -2.09798 c 0,-0.6443 0.585699,-1.16291 1.312942,-1.16291 z" /><path
       id="rect3732-10-7"
       style="fill:#000000;fill-opacity:1;stroke-width:0.265;stroke-linejoin:round"
       d="m 79.550307,32.228999 -7.931906,0.0148 0.0031,8.7319 2.285296,0.0291 0.0031,-1.40941 v -0.48 c 0,-0.31126 0.525007,-0.56136 1.176346,-0.56136 h 3.064164 c 0.651335,0 1.175579,0.2501 1.175579,0.56136 l 0.02527,1.88419 2.4063,-0.004 -0.0046,-2.90616 c 0,-0.34798 -0.350246,-0.65476 -0.892214,-0.8458 0.53984,-0.25274 0.889151,-0.65849 0.889151,-1.11753 v -2.50676 c 0,-0.76987 -0.981116,-1.38926 -2.199521,-1.38926 z m -4.467968,2.0029 h 3.064931 c 0.651335,0 1.175579,0.33123 1.175579,0.74276 v 0.63454 c 0,0.41154 -0.524244,0.74277 -1.175579,0.74277 h -3.064931 c -0.651338,0 -1.175579,-0.33123 -1.175579,-0.74277 v -0.63454 c 0,-0.41153 0.524241,-0.74276 1.175579,-0.74276 z"
       sodipodi:nodetypes="cccccssscccccsscsssssssss" /><path
       id="rect3732-10-8"
       style="fill:#000000;fill-opacity:1;stroke-width:0.265;stroke-linejoin:round"
       d="m 113.15502,32.510169 c -1.36038,0 -2.45532,0.97051 -2.45532,2.17578 v 3.92422 c 0,1.20527 1.09494,2.17578 2.45532,2.17578 h 6.40097 c 1.3604,0 2.45531,-0.97051 2.45531,-2.17578 v -0.77275 h -2.71034 c -0.0206,0.62813 -0.59777,1.1281 -1.31189,1.1281 h -3.42183 c -0.72725,0 -1.31266,-0.51824 -1.31266,-1.16256 v -2.09844 c 0,-0.64428 0.58541,-1.16254 1.31266,-1.16254 h 3.42183 c 0.68295,0 1.24036,0.45758 1.30577,1.0469 h 2.71646 v -0.90293 c 0,-1.20527 -1.09491,-2.17578 -2.45531,-2.17578 z" /><path
       id="rect3732-1"
       style="fill:#000000;fill-opacity:1;stroke-width:0.265;stroke-linejoin:round"
       d="m 113.32027,44.371359 c -3.11857,0 -5.629,2.51044 -5.629,5.629 v 10.15363 c 0,3.11858 2.51043,5.629 5.629,5.629 h 14.67367 c 3.11856,0 5.62899,-2.51042 5.62899,-5.629 v -10.15363 c 0,-3.11856 -2.51043,-5.629 -5.62899,-5.629 z m 3.23799,5.25604 h 7.84383 c 1.66713,0 3.00903,1.3419 3.00903,3.00901 v 5.42835 c 0,1.66714 -1.3419,3.00903 -3.00903,3.00903 h -7.84383 c -1.66712,0 -3.00978,-1.34189 -3.00978,-3.00903 v -5.42835 c 0,-1.66711 1.34266,-3.00901 3.00978,-3.00901 z" /><path
       id="path3910"
       style="fill:#000000;fill-opacity:1;stroke:none;stroke-width:0.264583px;stroke-linecap:butt;stroke-linejoin:miter;stroke-opacity:1"
       d="m 143.77522,43.453409 -7.65926,7.66001 -0.10345,15.63024 h 9.19632 l 1.54932,-2.6843 1.47733,2.5587 h 6.41015 l 1.44057,-2.49514 1.52251,2.63758 h 3.25715 l 7.38816,-7.38815 v -15.78799 h -12.35393 l -3.20047,5.54399 -3.27631,-5.67494 z m 13.67578,4.00922 h 7.17985 v 15.25342 h -4.75823 v -10.02037 l -5.76455,10.20648 h -3.52598 l -5.82811,-10.16743 v 10.17662 l -4.77737,-0.0689 v -15.25266 h 7.07951 l 5.1649,9.24074 z" /><path
       style="fill:#000000;fill-opacity:1;stroke:none;stroke-width:0.264583px;stroke-linecap:butt;stroke-linejoin:miter;stroke-opacity:1"
       d="m 51.838169,51.799639 -3.450735,-3.45073 6.848666,-3.95407 h 6.031047 v 21.22782 h -5.399443 v -16.30611 z"
       id="path3913" /><path
       style="fill:#000000;fill-opacity:1;stroke:none;stroke-width:0.264583px;stroke-linecap:butt;stroke-linejoin:miter;stroke-opacity:1"
       d="m 66.585003,51.558609 -3.450736,-3.45073 6.848667,-3.95408 h 6.031047 v 21.22782 h -5.399443 v -16.30611 z"
       id="path3913-5" /><path
       style="fill:#010000;fill-opacity:1;stroke:none;stroke-width:0.264583px;stroke-linecap:butt;stroke-linejoin:miter;stroke-opacity:1"
       d="m 122.90858,40.760819 v -8.37674 h 2.30462 v 3.25473 h 4.97128 v -3.12991 h 2.53089 v 8.32083 h -2.40222 v -3.01561 h -5.21284 v 2.88786 z"
       id="path4065" /><path
       style="fill:#010000;fill-opacity:1;stroke:none;stroke-width:0.264583px;stroke-linecap:butt;stroke-linejoin:miter;stroke-opacity:1"
       d="m 83.470926,40.718449 v -8.19777 h 3.813903 l 3.110751,5.38798 3.172524,-5.49497 h 3.628968 v 8.59871 h -1.941566 v -6.7498 l -3.8014,6.58422 h -1.83871 l -3.676937,-6.36866 v 6.1995 z"
       id="path4067" /><path
       style="fill:#010000;fill-opacity:1;stroke:none;stroke-width:0.264583px;stroke-linecap:butt;stroke-linejoin:miter;stroke-opacity:1"
       d="m 51.893061,40.582959 v -6.13032 h -3.489265 v -2.08299 h 9.857194 v 1.96723 h -3.822601 v 6.1591 z"
       id="path4069"
       sodipodi:nodetypes="ccccccccc" /><path
       id="path4126"
       style="fill:#000000;fill-opacity:1;stroke:none;stroke-width:0.264583px;stroke-linecap:butt;stroke-linejoin:miter;stroke-opacity:1"
       d="m 102.98531,32.481059 c 0,0 -4.563387,8.12327 -4.798048,8.31024 l 0.264213,-0.0399 h 2.182675 l 0.8118,-1.4061 h 5.5325 l 0.9236,1.59986 h 2.46451 l -4.46644,-8.46414 z m 1.37622,1.63663 2.05325,3.55737 -4.07509,-0.0559 z" /><path
       id="path4183"
       style="fill:#000000;fill-opacity:1;stroke:none;stroke-width:0.265;stroke-linejoin:round;stroke-opacity:1"
       d="m 136.10936,32.428869 a 1.5290591,1.5290591 0 0 0 -1.48555,1.56986 v 0.003 a 1.5290591,1.5290591 0 0 0 1.5717,1.48432 1.5290591,1.5290591 0 0 0 1.48493,-1.5717 1.5290591,1.5290591 0 0 0 -1.57108,-1.48495 z m -0.001,0.19754 a 1.318617,1.318617 0 0 1 1.35508,1.28063 1.318617,1.318617 0 0 1 -1.28061,1.35509 1.318617,1.318617 0 0 1 -1.35571,-1.28001 v -0.003 a 1.318617,1.318617 0 0 1 1.28124,-1.35384 z" /><text
       xml:space="preserve"
       style="font-style:normal;font-weight:normal;font-size:2.76845px;line-height:1.25;font-family:sans-serif;fill:#000000;fill-opacity:1;stroke:none;stroke-width:0.264583"
       x="135.19917"
       y="34.895512"
       id="text4269"><tspan
         sodipodi:role="line"
         id="tspan4267"
         style="stroke-width:0.264583"
         x="135.19917"
         y="34.895512">R</tspan></text></g></svg>
